<svg id="Laag_1" data-name="Laag 1" xmlns="http://www.w3.org/2000/svg" viewBox="0 0 363.09 320.35"><defs><style>.cls-1{fill:#263371;}.cls-2{fill:#ffcb04;}</style></defs><title>logo Westfriesland vector</title><path class="cls-1" d="M265.5,452.43l7-18.4a5.48,5.48,0,0,1,2.26,1.33,5,5,0,0,1,.72.93,4.58,4.58,0,0,1,.49,1.23,6,6,0,0,1,.14,1.58,7.71,7.71,0,0,1-.33,2c-.38,1-.78,2.11-1.2,3.23l-1.23,3.3c-.4,1.08-.79,2.11-1.16,3.1l-1,2.65c-.3.78-.54,1.43-.73,1.94l-.37,1c-.41,1.11-.81,2.08-1.19,2.9s-.74,1.54-1.07,2.13a16.13,16.13,0,0,1-.95,1.5,8,8,0,0,1-.81,1,2.34,2.34,0,0,1-1.56.86l-6.06-15.47-6.07,15.47a2.34,2.34,0,0,1-1.55-.86,7.2,7.2,0,0,1-.81-1,14.27,14.27,0,0,1-.95-1.5c-.34-.59-.69-1.3-1.07-2.13s-.76-1.79-1.17-2.9l-.37-1c-.19-.51-.43-1.16-.73-1.94s-.63-1.66-1-2.65l-1.17-3.1q-.62-1.62-1.23-3.3l-1.21-3.23a7.71,7.71,0,0,1-.33-2,5.59,5.59,0,0,1,.15-1.58,4.27,4.27,0,0,1,.49-1.23,5.41,5.41,0,0,1,.71-.93,5.58,5.58,0,0,1,2.27-1.33l7,18.4,7-16.73Z" transform="translate(-240.79 -144.27)"/><path class="cls-1" d="M304.55,464.06H282V434.47h22.51a6,6,0,0,1-.25,1.85,4.46,4.46,0,0,1-.65,1.35,4.37,4.37,0,0,1-.93.94,5.9,5.9,0,0,1-1.07.58,7,7,0,0,1-2.88.45H287.48v6.65h11.9a6.48,6.48,0,0,1-.21,1.74,4.94,4.94,0,0,1-.58,1.31,4,4,0,0,1-.8.92,5.5,5.5,0,0,1-.92.62,6,6,0,0,1-2.51.6h-6.88v7.41h12a6.3,6.3,0,0,1,1.72.22,4.6,4.6,0,0,1,1.28.59,3.84,3.84,0,0,1,.91.83,5.11,5.11,0,0,1,.59,1A6.43,6.43,0,0,1,304.55,464.06Z" transform="translate(-240.79 -144.27)"/><path class="cls-1" d="M317.46,439.71a3.56,3.56,0,0,0-1.17.11,3.79,3.79,0,0,0-.5.18,2.65,2.65,0,0,0-.52.28,2.72,2.72,0,0,0-.5.42,3.42,3.42,0,0,0-.45.58,3.33,3.33,0,0,0-.47,1.34,3.47,3.47,0,0,0,0,1.09,3.06,3.06,0,0,0,.42,1,2.88,2.88,0,0,0,.68.77,3.94,3.94,0,0,0,2.46.78H324a9.15,9.15,0,0,1,6.46,2.33,7.2,7.2,0,0,1,1.89,2.7,9.32,9.32,0,0,1,.61,3.49l0,.6a9.34,9.34,0,0,1-.62,3.48,7.33,7.33,0,0,1-1.88,2.71A9.13,9.13,0,0,1,324,463.9h-9.46a6.17,6.17,0,0,1-2.61-.52,5,5,0,0,1-.95-.58,3.87,3.87,0,0,1-.84-.91,5.1,5.1,0,0,1-.59-1.31,6.3,6.3,0,0,1-.23-1.78h14.94a4.51,4.51,0,0,0,1.1-.25,4.31,4.31,0,0,0,.95-.49,2.69,2.69,0,0,0,.82-.91,3.79,3.79,0,0,0,.4-.77,4.41,4.41,0,0,0,.18-.74,3.88,3.88,0,0,0,0-.67,3.49,3.49,0,0,0-.08-.6,3.4,3.4,0,0,0-.51-1.21,4.66,4.66,0,0,0-.77-.83,3.65,3.65,0,0,0-.43-.31,3.05,3.05,0,0,0-.51-.27,3.82,3.82,0,0,0-.6-.19,3.11,3.11,0,0,0-.69-.07H317.2a8.75,8.75,0,0,1-6.21-2.23,7.72,7.72,0,0,1-2.41-5.95l0-.58A7.78,7.78,0,0,1,311,436.8a8.85,8.85,0,0,1,6.21-2.23l9.78,0a5.88,5.88,0,0,1,2.61.48,5.11,5.11,0,0,1,1,.59,3.53,3.53,0,0,1,.83.92,4.71,4.71,0,0,1,.58,1.34,6.68,6.68,0,0,1,.22,1.84Z" transform="translate(-240.79 -144.27)"/><path class="cls-1" d="M353,439.76h-3.33v19.3a6.56,6.56,0,0,1-.24,1.88,4.94,4.94,0,0,1-.61,1.37,4,4,0,0,1-.88.94,4.74,4.74,0,0,1-1,.6,6.35,6.35,0,0,1-2.74.48V439.76h-3a7.29,7.29,0,0,1-2.81-.58,5.8,5.8,0,0,1-1-.61,4,4,0,0,1-.9-.93,4.77,4.77,0,0,1-.64-1.32,5.94,5.94,0,0,1-.24-1.78h22.72a5.89,5.89,0,0,1-.53,2.61,4.75,4.75,0,0,1-.6,1,3.86,3.86,0,0,1-.95.83,5.39,5.39,0,0,1-1.37.59A6.83,6.83,0,0,1,353,439.76Z" transform="translate(-240.79 -144.27)"/><path class="cls-1" d="M367.06,459a5.6,5.6,0,0,1-.24,1.73,4.62,4.62,0,0,1-.62,1.28,3.73,3.73,0,0,1-.87.9,4.94,4.94,0,0,1-1,.59,6.74,6.74,0,0,1-2.72.56V434.48h22.52a6.34,6.34,0,0,1-.24,1.85,4.92,4.92,0,0,1-.66,1.36,4.1,4.1,0,0,1-.93.93,5.56,5.56,0,0,1-1.06.58,7,7,0,0,1-2.89.45H367.06v6.66H379a6.48,6.48,0,0,1-.21,1.74,5.28,5.28,0,0,1-.57,1.31,4.27,4.27,0,0,1-.81.92,4.65,4.65,0,0,1-.92.62,6,6,0,0,1-2.51.6h-6.88Z" transform="translate(-240.79 -144.27)"/><path class="cls-1" d="M395.81,453.13H392.9v5.21a9.19,9.19,0,0,1-.23,2.24,6.23,6.23,0,0,1-.61,1.62,4.26,4.26,0,0,1-.87,1.09,5,5,0,0,1-1,.67,5.24,5.24,0,0,1-2.71.45V434.53h13.93a11.35,11.35,0,0,1,3.37.46,10.86,10.86,0,0,1,2.67,1.19,9.55,9.55,0,0,1,2,1.68,11.45,11.45,0,0,1,1.39,1.94,8.69,8.69,0,0,1,.8,1.93,6.64,6.64,0,0,1,.26,1.69,11.85,11.85,0,0,1-.17,2,8.36,8.36,0,0,1-.53,1.76,8.11,8.11,0,0,1-.87,1.58,12.69,12.69,0,0,1-1.23,1.46,9.48,9.48,0,0,1-4.33,2.44l-.07,0L412.5,464h-6.78l-5.64-8.67a3.62,3.62,0,0,0-.86-1.11c-.17-.14-.36-.27-.57-.41a3.92,3.92,0,0,0-.74-.35,5.57,5.57,0,0,0-.94-.25A5.9,5.9,0,0,0,395.81,453.13Zm10.69-9.71a3.13,3.13,0,0,0-.1-.77,2.86,2.86,0,0,0-.34-.82,3.32,3.32,0,0,0-.64-.79,3.94,3.94,0,0,0-1-.68,6.58,6.58,0,0,0-1.44-.47,10.07,10.07,0,0,0-1.94-.17H392.9v6.14a2.41,2.41,0,0,0,.46.75,3.06,3.06,0,0,0,.65.54,4.54,4.54,0,0,0,.77.37,7.62,7.62,0,0,0,.82.22,8.76,8.76,0,0,0,2,.16H401a6.67,6.67,0,0,0,2.38-.39,4.84,4.84,0,0,0,1.74-1.1c.22-.23.42-.44.59-.65a3.58,3.58,0,0,0,.42-.65,2.66,2.66,0,0,0,.26-.75A4.28,4.28,0,0,0,406.5,443.42Z" transform="translate(-240.79 -144.27)"/><path class="cls-1" d="M422.82,464h-5.46V434a6.28,6.28,0,0,1,2.75.5,5.25,5.25,0,0,1,1,.63,4.18,4.18,0,0,1,.88,1,5.3,5.3,0,0,1,.63,1.44,7.25,7.25,0,0,1,.23,2v3.26c0,.8,0,1.7,0,2.68v3.09c0,1.07,0,2.17,0,3.29v3.28c0,1.07,0,2.1,0,3.07v2.64c0,.79,0,1.45,0,2Z" transform="translate(-240.79 -144.27)"/><path class="cls-1" d="M453.29,464.06H430.77V434.47h22.52a6,6,0,0,1-.25,1.85,4.25,4.25,0,0,1-.66,1.35,4,4,0,0,1-.93.94,5.82,5.82,0,0,1-1.06.58,7,7,0,0,1-2.89.45H436.21v6.65h11.91a6.46,6.46,0,0,1-.22,1.74,4.63,4.63,0,0,1-.57,1.31,4.27,4.27,0,0,1-.81.92,5.06,5.06,0,0,1-.91.62,6,6,0,0,1-2.51.6h-6.89v7.41h12a6.38,6.38,0,0,1,1.73.22,4.88,4.88,0,0,1,1.28.59,3.78,3.78,0,0,1,.9.83,4.69,4.69,0,0,1,.6,1A6.43,6.43,0,0,1,453.29,464.06Z" transform="translate(-240.79 -144.27)"/><path class="cls-1" d="M466.19,439.71a3.5,3.5,0,0,0-1.16.11,4.5,4.5,0,0,0-.51.18,2.58,2.58,0,0,0-.51.28,2.43,2.43,0,0,0-.5.42,3,3,0,0,0-.45.58,3.36,3.36,0,0,0-.48,1.34,3.77,3.77,0,0,0,.06,1.09,3.06,3.06,0,0,0,.42,1,2.72,2.72,0,0,0,.68.77,3.56,3.56,0,0,0,1,.53,3.84,3.84,0,0,0,1.49.25h6.53a9.18,9.18,0,0,1,6.47,2.33,7.29,7.29,0,0,1,1.88,2.7,9.32,9.32,0,0,1,.62,3.49l0,.6a9.34,9.34,0,0,1-.61,3.48,7.58,7.58,0,0,1-1.88,2.71,9.17,9.17,0,0,1-6.45,2.31h-9.46a6.16,6.16,0,0,1-2.6-.52,5.11,5.11,0,0,1-1-.58,3.84,3.84,0,0,1-.83-.91,4.78,4.78,0,0,1-.59-1.31,6.3,6.3,0,0,1-.23-1.78H473a4.7,4.7,0,0,0,1.11-.25,4.25,4.25,0,0,0,.94-.49,2.72,2.72,0,0,0,.83-.91,3.72,3.72,0,0,0,.39-.77,3.61,3.61,0,0,0,.18-.74,3.13,3.13,0,0,0,0-.67,3.49,3.49,0,0,0-.08-.6,3.8,3.8,0,0,0-.51-1.21,4.37,4.37,0,0,0-.78-.83,4.56,4.56,0,0,0-.42-.31,4.11,4.11,0,0,0-.51-.27,3.63,3.63,0,0,0-.61-.19,3,3,0,0,0-.69-.07h-6.93a8.71,8.71,0,0,1-6.21-2.23,7.68,7.68,0,0,1-2.41-5.95l0-.58a7.78,7.78,0,0,1,2.39-5.93,8.81,8.81,0,0,1,6.21-2.23l9.78,0a5.86,5.86,0,0,1,2.6.48,4.87,4.87,0,0,1,1,.59,3.53,3.53,0,0,1,.83.92,5,5,0,0,1,.58,1.34,6.68,6.68,0,0,1,.22,1.84Z" transform="translate(-240.79 -144.27)"/><path class="cls-1" d="M509.57,464H487.22V434.48h5.42v24.37h11.5a7,7,0,0,1,1.88.22,5.06,5.06,0,0,1,1.39.59,4,4,0,0,1,1,.83,4.83,4.83,0,0,1,.63.94A5.85,5.85,0,0,1,509.57,464Z" transform="translate(-240.79 -144.27)"/><path class="cls-1" d="M533.61,458.66l-7.8,0a6.28,6.28,0,0,1-2.73-.48,4.64,4.64,0,0,1-1-.57,3.65,3.65,0,0,1-.87-.92,4.74,4.74,0,0,1-.62-1.32,6.55,6.55,0,0,1-.23-1.82h13.28v-6a10.83,10.83,0,0,0-.55-3.59,7.87,7.87,0,0,0-1.63-2.77,7.17,7.17,0,0,0-5.49-2.38,7.6,7.6,0,0,0-3,.59,6.92,6.92,0,0,0-2.45,1.79,9,9,0,0,0-2.19,6.36V464h-5.5V446.38a12.63,12.63,0,0,1,7.9-11.84,15.37,15.37,0,0,1,10.53,0,12.08,12.08,0,0,1,4.19,2.81,12.36,12.36,0,0,1,3.72,9V464h-5.51v-5.37Z" transform="translate(-240.79 -144.27)"/><path class="cls-1" d="M568.46,439.68v16.95c0,.88.06,1.67,0,2.36s-.06,1.3-.12,1.84a12.54,12.54,0,0,1-.22,1.38,6.26,6.26,0,0,1-.28,1,2.54,2.54,0,0,1-.84,1.28l-17.59-17.65v17.49a4.26,4.26,0,0,1-2.78-.31,4.16,4.16,0,0,1-1-.75,4.8,4.8,0,0,1-.89-1.29,8.21,8.21,0,0,1-.63-2,13.9,13.9,0,0,1-.24-2.78v-15.3a30.85,30.85,0,0,1,.11-3.83,12.93,12.93,0,0,1,.19-1.41,8.47,8.47,0,0,1,.31-1.23,2.75,2.75,0,0,1,.48-.87.88.88,0,0,1,.68-.33c.18.2.46.48.82.85l1.26,1.31,1.61,1.67,1.86,1.93,2,2.09,2.06,2.14,7.92,8.27v-18.3a5.72,5.72,0,0,1,2.63.47,4.6,4.6,0,0,1,1,.62,4,4,0,0,1,.85,1,5.09,5.09,0,0,1,.6,1.43A7.56,7.56,0,0,1,568.46,439.68Z" transform="translate(-240.79 -144.27)"/><path class="cls-1" d="M583.2,458.9h5.27a12.23,12.23,0,0,0,5-1.26,9.71,9.71,0,0,0,1.84-1.21,8,8,0,0,0,1.61-1.83,9.65,9.65,0,0,0,1.14-2.55,12,12,0,0,0,.43-3.4,6.52,6.52,0,0,0-.17-1.55,8.36,8.36,0,0,0-.44-1.39,8.84,8.84,0,0,0-.62-1.23c-.24-.37-.48-.72-.72-1a11.13,11.13,0,0,0-1.95-1.93,11,11,0,0,0-1.7-.94,12.47,12.47,0,0,0-1.91-.65,9.32,9.32,0,0,0-2.44-.3h-7.34l-.06,24.41h-5.4V434.47h12.4a18.05,18.05,0,0,1,6.46,1.09,14.51,14.51,0,0,1,9.27,13.66,14,14,0,0,1-4.25,10.35A15.38,15.38,0,0,1,588.47,464a5.74,5.74,0,0,1-2.64-.43,4.39,4.39,0,0,1-1-.58,3.4,3.4,0,0,1-.84-.92,4.73,4.73,0,0,1-.6-1.34A6.85,6.85,0,0,1,583.2,458.9Z" transform="translate(-240.79 -144.27)"/><polygon class="cls-2" points="177.35 2.71 239.28 0 275.77 50.11 316.51 96.84 300.08 156.62 288.95 217.6 231.96 242.03 177.35 271.34 122.73 242.03 65.75 217.6 54.62 156.62 38.19 96.84 78.92 50.11 115.42 0 177.35 2.71"/><path class="cls-1" d="M357.81,207.19s6.58,7,6.58,14-7.41,10.29-5.76,16,15.22,18.1,15.22,18.1,2.47-18.51,2.06-23.86-.41-17.69-.41-17.69-1.65-9.47,0-10.29,8.63,6.17,8.63,6.17,8.23-2.47,11.94-1.64a77.32,77.32,0,0,0,8.23,1.23l10.28-5.35s-1.64,11.11-3.29,12.76c0,0,2.46,13.16,1.65,16.45s3.7,17.69,8.23,19.75c0,0-7.42,8.23-1.24,7.82s44-6.17,62.94,5.76c0,0,11.94-16-6.57-14.4s-18.93-5.35-18.93-5.35-29.22,4.11-29.22-18.1,21.4-19.34,32.92-19.34,24.69-8.64,24.69-8.64,8.22,3.29,3.7,10.29-14.81,9.46-28.39,9.46-21.8,1.64-21.39,7.82,11.11,9,24.69,7.82,21.8,0,27.56,5.34,18.93,24.28-.82,35.38c0,0-1.65,16.46.41,19.75s10.7,2.88,10.7,2.88v28.39s-5.35.82-5.76,4.12-3.71,9.05-9.47,5.76-5.35,1.24-11.52,1.64-8.64-9.46-6.17-13.57,11.11-2.89,14.4-2.47,7-.42,6.58-3.29-.82-9.88-4.94-9.47-10.28-1.64-14-7.81-5.76-14.81-5.76-14.81-15.22,7-13.58,11.93,3.7,11.1,3.7,11.1-12.75,7.41-16.45,12.35-2.47,11.1-5.35,11.52-9.88-6.18-14-4.94-6.59,7-9.88,4.94-5.75-6.58-9.87-7-2.88-7.81,2.06-11.51,11.1.4,14.81,2,10.7-2,13.16-4.94a29.75,29.75,0,0,0,3.71-5.34s-11.93-5.35-13.17-4.12,13.17-10.7,13.17-10.7,9.05-7.81,11.11-9.87c0,0-3.29-2.47-13.17,1.23s-19.34,13.58-22.63,15.64-7.41-2.88-7.41-2.88a38.28,38.28,0,0,1-9.87,9.88c-6.17,4.11-8.22,8.64-12.34,14.39s-12.76,7.82-15.64,3.7-6.58-.82-9.87,1.65-9.05-1.23-6.16-10.29,7-5.76,13.16-6.58,15.63-3.7,15.63-16.45c0,0-4.94-.83-10.28,3.28s-12.35-5.75-16.87-5.34S343,289.9,343,289.9s17.69-15.64,14.4-14.82a9.18,9.18,0,0,1-6.17-.82L357,268.5s-3.7-9.47-5.35-14.81-1.24-14-4.94-15.64-4.11-4.11-.81-8.23.4-9.46,1.23-12.75S355.75,206.37,357.81,207.19Z" transform="translate(-240.79 -144.27)"/></svg>