<?xml version="1.0" encoding="UTF-8" standalone="no"?>
<svg version="1.1" xmlns="http://www.w3.org/2000/svg" xmlns:xlink="http://www.w3.org/1999/xlink" width="664.8" height="491.04">
	<g id="dp_dp001" transform="matrix(1,0,0,1,-227.236,-120.048)">
		<path id="dp_path002" fill="#fbc903" fill-rule="evenodd" stroke="#fbc903" stroke-width="12.6667" stroke-linejoin="round" d="M 470.744,126.369 C 531.647,131.385 589.785,130.8 646.848,126.849 C 676.407,170.085 713.092,217.109 756.733,264.197 C 738.547,320.255 727.092,379.905 717.865,434.681 C 662.644,458.493 609.46,484.347 558.077,512 C 506.8,484.205 454.044,458.635 400.207,434.681 C 391.125,379.145 376.661,321.815 359.9,263.717 C 363.873,265.061 474.449,127.585 470.744,126.369 Z "/>
		<path id="dp_path003" fill="#02336d" fill-rule="evenodd" stroke="none" stroke-width="0" d="M 607.184,234.701 C 609.089,233.887 615.912,233.217 622.348,233.217 C 632.893,233.217 646.043,230.76 655.089,224.475 C 658.505,222.101 660.605,218.008 660.605,213.927 C 660.605,211.493 660.277,210.165 659.165,208 C 656.66,203.124 651.951,204.213 647.883,206.523 C 642.355,209.659 634.504,213.927 627.959,213.927 L 627.959,215.411 L 620.54,215.411 C 618.636,216.228 610.809,216.895 603.149,216.895 C 592.42,216.895 582.227,217.705 574.173,225.475 C 568.764,230.697 567.119,238.736 567.119,245.985 C 567.119,253.913 571.045,259.659 575.632,265.7 C 578.847,267.848 581.049,268.963 584.925,269.651 C 587.46,270.101 590.499,271.103 591.68,271.876 C 592.345,271.8 593.829,273.283 593.829,273.283 C 610.152,273.283 610.152,273.283 613.12,277.735 L 619.056,280.703 C 645.767,280.703 645.767,280.703 651.701,283.671 C 654.019,288.443 654.067,289.547 652.157,294.251 C 650.985,297.137 649.367,299.277 648.561,299.004 C 640.245,296.199 631.612,294.027 622.995,292.412 C 616.628,291.221 610.68,291.091 604.216,291.091 L 583.441,291.091 L 564.151,291.091 L 564.151,292.575 C 563.408,292.575 562.667,292.575 561.924,292.575 C 561.183,292.575 561.183,292.575 561.183,292.575 L 552.279,292.575 L 553.763,286.639 C 556.335,282.948 556.105,281.096 553.763,277.735 C 549.935,272.14 547.765,265.501 546.133,258.956 C 545.431,256.135 545.189,252.492 545.6,250.864 C 546.009,249.233 545.676,243.561 544.86,238.257 C 543.268,227.921 545.871,218.655 548.357,208.733 C 547.875,208.733 547.391,208.733 546.907,208.733 C 542.813,210.907 538.72,213.081 534.627,215.256 C 531.055,217.041 527.019,216.107 523.188,215.411 C 517.676,214.409 513.047,214.421 508.927,215.452 C 503.539,216.799 501.161,215.583 497.22,212.288 C 495.292,210.811 493.365,209.332 491.439,207.856 C 487.887,208.824 488.471,212.272 488.471,215.411 L 488.471,221.347 C 489.955,225.797 489.955,225.797 489.955,237.669 L 489.955,256.96 L 486.987,276.251 C 486.987,278.972 486.987,281.692 486.987,284.413 C 486.823,284.413 486.656,284.413 486.492,284.413 L 479.567,276.251 L 471.993,268.677 L 468.857,264.899 C 464.635,259.811 464.253,254.891 467.501,249.107 C 469.104,246.256 470.668,243.425 472.071,240.471 C 474.489,235.375 473.756,231.827 471.405,227.128 C 470.043,224.399 468.768,221.679 467.604,218.861 C 466.025,215.035 461.712,212.623 457.995,215.345 C 455.06,217.493 452.72,219.993 450.553,222.907 C 449.888,224.313 448.404,225.797 448.404,225.797 C 448.404,225.797 448.404,225.797 447.663,226.54 C 447.255,226.948 446.92,230.509 446.92,234.455 C 446.92,238.399 446.253,243.184 445.437,245.089 L 442.623,250.871 L 442.431,254.147 C 442.197,258.153 445.872,260.363 448.328,262.819 C 448.404,262.896 448.404,262.896 448.404,262.896 C 448.404,262.896 448.404,262.896 449.121,262.896 L 449.835,262.896 C 451.244,269.74 452.856,276.643 452.856,283.671 C 456.829,289.837 458.535,296.733 460.768,303.704 C 460.963,303.704 461.156,303.704 461.351,303.704 C 458.232,307.089 455.116,310.472 451.997,313.857 C 455.98,314.313 459.961,314.769 463.944,315.225 C 461.283,316.644 459.461,318.616 457.308,320.769 C 451.747,326.331 445.965,331.659 440.223,337.035 L 444.391,338.548 C 446.683,339.379 449.025,339.893 449.596,339.689 C 453.009,338.465 459.159,342.808 461.76,344.512 C 465.383,346.884 471.435,350.696 475.78,347.535 C 477.1,346.575 479.159,345.503 480.356,345.151 C 481.051,344.512 482.535,344.512 482.535,344.512 C 484.019,344.512 485.503,343.028 487.171,342.956 L 491.807,341.403 C 490.605,346.221 489.828,353.276 485.503,356.383 C 485.041,358.603 484.161,359.113 482.311,360.457 C 476.425,364.739 469.623,365.835 462.484,366.404 C 456.221,366.903 452.104,367.989 451.069,369.413 C 447.361,374.512 445.352,383.165 448.361,389.019 C 452.316,396.717 459.744,389.84 464.815,387.628 C 468.471,386.032 470.327,387.175 472.832,389.848 C 476.196,393.437 483.437,392.284 487.457,390.719 C 490.281,389.621 491.472,388.547 493.393,386.189 C 496.968,381.805 500.503,377.387 503.897,372.86 C 510.484,364.077 520.06,357.527 528.381,350.447 C 529.852,350.447 531.595,351.559 532.955,352.08 C 536.364,353.384 537.821,353.251 540.22,351.415 C 546.217,346.827 552.232,342.26 558.292,337.757 C 560,336.488 561.713,335.239 563.456,334.021 C 564.707,333.151 566.711,332.148 567.908,331.795 C 568.603,331.156 570.087,331.156 570.087,331.156 C 570.087,331.156 571.569,329.672 572.235,329.672 C 577.471,326.056 585.517,324.964 591.431,327.023 L 584.925,332.64 C 579.575,337.991 573.616,342.571 567.86,347.48 C 563.832,350.915 559.837,354.384 555.851,357.867 C 557.68,357.867 559.509,357.867 561.337,357.867 C 564.937,359.357 568.537,360.848 572.137,362.339 C 573.715,362.769 574.945,363.287 574.253,365.284 C 572.697,369.777 567.459,372.365 564.151,375.673 C 553.763,378.641 553.763,378.641 547.827,375.673 C 541.321,373.811 534.608,372.745 532.527,373.248 C 526.797,374.635 523.456,380.328 522.823,385.845 C 522.5,388.671 522.351,391.167 524.625,392.952 C 526.475,393.624 528.324,394.295 530.175,394.965 C 533.016,397.525 535.857,400.088 538.699,402.648 C 542.583,403.605 545.384,403.732 548.66,400.82 C 554.624,395.519 562.369,395.612 568.756,400.236 C 571.072,401.912 574.855,404.452 577.673,403.041 C 577.505,402.384 578.989,402.384 578.989,402.384 C 578.989,394.201 583.8,382.585 592.345,380.125 C 596.791,375.68 601.987,372.157 607.029,368.408 C 609.457,367.132 607.883,363.32 607.32,361.151 C 607.184,359.351 605.7,356.383 605.7,354.899 C 605.7,354.899 604.216,353.415 604.456,352.195 C 603.7,350.552 603.053,349.807 603.863,348.188 C 605.519,344.876 607.956,342.612 611.636,341.544 C 614.433,338.279 617.925,337.252 621.869,335.608 C 622.247,335.311 622.627,335.015 623.004,334.717 C 624.969,341.623 628.223,347.613 630.927,354.235 C 632.639,358.423 634.196,361.165 638.109,363.48 C 641.532,365.507 644.888,365.981 648.813,366.711 C 656.099,368.068 656.533,368.415 657.912,373.944 C 658.709,377.14 659.18,380.783 658.957,382.043 C 658.433,385.013 652.673,386.061 650.217,386.061 C 648.733,384.577 648.733,384.577 635.379,384.577 C 628.224,388.155 625.571,393.375 627.823,401.033 C 630.117,408.835 635.661,409.804 642.799,409.804 L 648.733,405.352 L 654.669,408.32 C 657.475,409.224 660.613,409.285 662.696,408.479 C 667.152,406.753 668.211,400.644 669.509,396.603 C 671.228,395.54 672.704,394.732 674.657,394.153 C 675.444,393.481 676.928,393.481 676.928,393.481 L 676.928,351.931 L 678.412,351.931 L 678.412,350.447 C 669.509,350.447 669.509,350.447 665.057,347.48 C 665.057,347.48 663.573,347.48 663.945,347.48 L 662.831,347.48 L 661.719,345.331 C 661.105,344.149 660.605,333.097 660.605,320.769 C 661.308,318.377 663.129,315.796 664.657,315.033 C 675.305,309.708 679.985,294.08 674.703,283.516 C 672.979,280.069 671.859,276.825 670.839,273.129 C 668.305,270.105 665.831,267.219 662.94,264.535 C 658.737,260.631 653.353,258.096 647.915,256.219 C 647.249,255.476 645.767,255.476 645.767,255.476 L 619.056,255.476 C 616.281,256.665 614.336,256.96 611.312,256.96 C 604.464,256.96 596.169,255.856 590.388,252.115 C 587.976,250.556 587.1,249.685 586.004,247.041 C 583.964,242.123 587.864,237.916 592.272,236.329 C 593.829,236.185 595.313,234.701 596.796,234.701 Z "/>
		<path id="dp_path004" fill="#02336d" fill-rule="evenodd" stroke="none" stroke-width="0" d="M 783.675,561.501 L 783.675,599.955 Z "/>
		<path id="dp_path005" fill="#02336d" fill-rule="evenodd" stroke="none" stroke-width="0" d="M 460.492,555.093 L 448.589,555.093 L 448.589,558.756 L 448.589,606.967 C 448.808,608.281 449.028,609.596 449.247,610.909 C 452.029,609.137 454.813,607.365 457.595,605.595 C 457.743,599.275 457.892,592.955 458.039,586.636 L 466.909,586.241 C 475.371,585.865 475.876,585.725 477.897,583.209 C 479.412,581.324 479.837,579.961 479.389,578.425 C 478.784,576.351 478.419,576.273 468.152,576.087 L 457.54,575.895 C 457.741,572.391 457.943,568.888 458.144,565.385 L 470.824,565.039 C 482.433,564.72 483.723,564.511 486.108,562.573 C 488.625,560.527 489.105,557.797 489.545,554.809 L 482.343,554.951 C 480.633,555.093 476.971,555.093 475.14,555.093 L 461.309,555.093 C 460.967,555.055 460.687,555.052 460.492,555.093 Z "/>
		<path id="dp_path006" fill="#02336d" fill-rule="evenodd" stroke="none" stroke-width="0" d="M 302.104,599.039 L 302.104,604.532 L 302.395,610.025 C 315.92,610.025 329.445,610.025 342.969,610.025 L 342.844,606.841 C 342.744,604.357 342.097,603.265 339.897,601.865 C 337.492,600.335 335.236,600.047 324.533,599.901 L 311.989,599.729 L 312.279,593.181 L 312.567,586.632 L 320.913,585.969 C 325.503,585.604 330.223,584.776 331.401,584.128 C 334.115,582.636 333.692,579.244 333.796,576.579 C 326.523,576.323 319.249,576.065 311.975,575.809 C 312.175,572.344 312.375,568.88 312.573,565.415 L 325.036,564.832 C 334.823,564.375 338.059,563.889 340.105,562.579 C 342.812,560.845 343.364,557.98 344.005,555.093 C 333.395,555.093 322.785,555.093 312.176,555.093 L 302.104,555.093 L 302.104,558.756 L 302.104,562.417 L 302.104,567.911 L 302.104,578.897 L 302.104,584.391 Z "/>
		<path id="dp_path007" fill="#02336d" fill-rule="evenodd" stroke="none" stroke-width="0" d="M 400.067,555.093 L 400.983,558.756 C 404.812,564.144 404.969,564.248 410.255,564.901 L 415.631,565.567 C 415.631,580.449 415.631,595.331 415.631,610.212 L 419.273,609.871 C 422.333,609.583 423.211,609.005 424.767,606.261 C 426.457,603.279 426.617,601.373 426.617,584.289 L 426.617,565.583 L 433.107,564.725 L 439.596,563.869 L 441.229,559.676 C 442.781,555.695 442.787,555.473 441.305,555.288 L 439.747,555.093 C 428.352,555.093 416.955,555.093 405.56,555.093 Z "/>
		<path id="dp_path008" fill="#02336d" fill-rule="evenodd" stroke="none" stroke-width="0" d="M 643.597,555.093 C 644.613,556.317 648.261,558.585 649.432,556.243 C 650.007,556.009 650.007,555.093 650.007,555.093 Z "/>
		<path id="dp_path009" fill="#02336d" fill-rule="evenodd" stroke="none" stroke-width="0" d="M 688.459,558.756 L 687.149,554.879 L 684.797,555.093 L 677.588,554.691 L 677.503,580.929 C 677.456,595.363 677.74,607.812 678.132,608.597 C 678.745,609.827 681.66,610.025 699.013,610.025 L 719.18,610.025 C 719.18,607.42 718.879,605.192 717.243,603.001 C 714.287,599.045 707.924,599.557 703.42,599.039 C 698.432,598.928 693.445,598.816 688.459,598.704 C 688.459,585.388 688.459,572.072 688.459,558.756 Z "/>
		<path id="dp_path010" fill="#02336d" fill-rule="evenodd" stroke="none" stroke-width="0" d="M 517.125,579.549 L 516.548,579.533 L 515.979,579.515 L 516.056,579.517 L 516.133,579.521 L 516.657,579.543 L 517.183,579.556 L 517.709,579.561 Z M 517.709,579.561 C 517.785,579.56 517.861,579.56 517.939,579.559 C 519.845,579.525 523.339,579.428 526.265,577.357 C 523.179,579.591 518.751,579.556 517.709,579.561 Z M 526.601,577.097 L 526.684,577.028 L 526.723,576.996 L 526.751,576.972 L 526.795,576.935 L 526.843,576.892 L 526.723,576.996 L 526.565,577.125 L 526.404,577.253 Z M 512.273,579.203 C 511.305,579.06 509.173,578.959 507.635,577.676 C 507.243,577.349 507.073,577.115 506.695,576.651 C 508.236,578.445 510.399,578.893 512.031,579.165 C 512.111,579.179 512.192,579.189 512.273,579.203 Z M 526.984,576.767 C 527.375,576.388 527.732,576.045 528.053,575.596 C 527.807,575.9 527.565,576.189 527.303,576.456 C 527.167,576.595 527.051,576.704 526.889,576.851 C 526.92,576.823 526.952,576.795 526.984,576.767 Z M 505.699,574.481 L 505.693,574.457 L 505.668,574.333 L 505.661,574.297 Z M 505.624,574.076 L 505.656,574.269 L 505.66,574.289 Z M 530.029,572.556 L 530.075,572.477 L 530.141,572.353 L 530.315,572.037 L 530.408,571.879 L 530.497,571.741 L 530.539,571.687 L 530.576,571.644 L 530.609,571.615 L 530.624,571.605 L 530.637,571.601 Z M 530.492,571.368 L 530.389,571.191 L 530.484,571.353 L 530.497,571.375 L 530.515,571.4 Z M 530.083,570.707 L 529.043,569.032 L 529.048,569.04 L 530.059,570.669 L 530.168,570.841 Z "/>
		<path id="dp_path011" fill="#02336d" fill-rule="evenodd" stroke="none" stroke-width="0" d="M 237.229,564.405 C 234.661,556.979 233.283,554.177 232.193,554.177 C 231.368,554.177 229.813,555.308 228.736,556.689 C 227.065,558.836 226.865,559.945 227.363,564.316 C 227.701,567.283 230.639,576.351 234.355,585.909 C 237.881,594.973 241.537,603.889 242.481,605.724 C 243.427,607.557 244.992,609.484 245.96,610.007 C 247.552,610.864 248.045,610.189 251.049,603.056 C 253.827,596.463 256.465,589.825 259.075,583.163 C 262.713,592.343 266.351,601.521 269.991,610.699 L 272.784,609.097 C 275.144,607.745 276.424,605.391 280.983,594.005 C 285.111,583.697 288.808,573.255 292.321,562.725 L 290.459,558.856 C 289.141,556.116 287.952,554.903 286.388,554.704 C 284.316,554.439 283.795,555.424 278.036,570.477 L 271.892,586.533 C 267.62,576.56 263.347,566.587 259.075,556.612 C 254.803,566.587 250.529,576.56 246.257,586.533 C 242.911,579.281 239.841,571.963 237.229,564.405 Z "/>
		<path id="dp_path012" fill="#02336d" fill-rule="evenodd" stroke="none" stroke-width="0" d="M 763.053,557.091 C 759.787,554.417 758.871,554.161 750.996,553.729 C 743.012,553.292 742.164,553.423 737.547,555.795 C 731.141,559.088 726.356,565.141 725.62,572.371 C 724.347,584.868 725.08,597.636 725.08,610.192 C 728.513,609.995 731.947,609.797 735.38,609.6 L 735.265,594.405 C 735.188,584.023 735.561,577.559 736.445,573.996 C 738.028,567.623 743.017,563.517 749.7,563.684 C 756.224,563.848 760.105,567.803 761.992,573.831 C 763.645,579.119 763.417,584.393 763.145,589.827 C 754.772,589.885 746.397,589.944 738.023,590.003 C 739.164,592.925 740.304,595.849 741.444,598.775 L 747.297,599.364 C 752.496,599.888 757.68,600.181 762.897,600.444 L 763.517,605.332 L 764.137,610.22 C 767.539,609.992 770.94,609.765 774.341,609.539 L 774.468,593.688 C 774.569,580.959 774.265,576.599 772.924,571.549 C 771.204,565.069 768.024,561.155 763.053,557.091 Z "/>
		<path id="dp_path013" fill="#02336d" fill-rule="evenodd" stroke="none" stroke-width="0" d="M 877.455,557.832 C 872.205,555.408 870.816,555.2 856.592,554.707 L 841.352,554.177 C 841.029,572.457 840.705,590.737 840.381,609.017 C 844.068,610.092 847.372,609.885 851.143,609.347 C 851.236,595.431 851.329,581.515 851.424,567.599 C 851.771,564.133 856.988,565.179 859.628,565.175 C 867.087,565.165 873.871,565.953 878.621,572.217 C 881.728,576.315 881.804,576.613 881.269,582.545 C 880.725,588.605 878.756,594.348 872.963,597.171 C 867.179,599.989 859.973,599.945 853.668,600.571 L 854.675,603.895 C 855.412,606.335 856.579,607.664 859.056,608.889 C 862.313,610.5 862.672,610.5 869.132,608.92 C 875.091,607.46 879.615,604.944 884.395,601.232 C 890.183,596.737 891.717,588.665 891.844,581.823 C 891.964,575.235 891.697,573.901 889.555,570.379 C 886.268,564.976 883.505,560.627 877.455,557.832 Z "/>
		<path id="dp_path014" fill="#02336d" fill-rule="evenodd" stroke="none" stroke-width="0" d="M 801.313,570.591 L 787.375,555.571 C 785.193,554.479 784.34,554.731 783.216,557.225 C 782.124,559.652 781.843,564.585 781.843,581.391 C 781.843,601.911 781.904,602.617 784.009,606.328 C 785.975,609.793 786.481,610.129 789.477,609.953 L 792.78,609.759 C 792.829,599.98 792.88,590.201 792.928,580.421 C 794.443,581.725 795.999,582.979 797.552,584.235 C 802.897,588.556 807.501,593.692 812.315,598.593 C 822.308,608.768 824.109,610.235 825.621,609.423 C 827.267,608.54 827.381,607.076 827.553,584.901 C 827.729,562.007 827.677,561.227 825.715,558.087 C 823.584,554.68 820.923,554.721 817.305,554.549 L 817.479,570.08 C 817.617,582.368 817.403,585.611 816.452,585.611 C 815.793,585.611 808.98,578.852 801.313,570.591 Z M 783.675,561.501 L 783.675,599.955 Z "/>
		<path id="dp_path015" fill="#02336d" fill-rule="evenodd" stroke="none" stroke-width="0" d="M 389.335,555.791 C 387.856,555.407 380.808,555.093 373.672,555.093 C 362.469,555.093 360.319,555.332 357.919,556.847 C 351.089,561.152 349.707,570.043 351.903,577.311 C 354.391,585.548 363.572,586.331 370.915,586.679 C 376.612,586.951 381.465,587.659 382.829,588.416 C 386.305,590.351 386.124,597.272 382.092,598.32 C 380.568,598.716 373.225,599.087 365.776,599.145 L 352.231,599.251 C 352.231,601.881 352.48,604.179 354.133,606.392 C 355.812,608.639 356.861,609.025 362.956,609.644 C 370.992,610.46 381.763,611.296 388.921,606.857 C 396.361,602.243 397.884,589.033 392.464,582.28 C 387.789,576.456 379.595,576.601 372.787,576.2 L 362.332,575.585 L 361.316,572.231 C 360.396,569.187 360.499,568.713 362.427,567.12 C 364.304,565.568 366.352,565.332 379.92,565.104 L 395.285,564.847 L 393.655,560.667 C 392.388,557.415 391.429,556.332 389.335,555.791 Z "/>
		<path id="dp_path016" fill="#02336d" fill-rule="evenodd" stroke="none" stroke-width="0" d="M 643.597,555.093 C 634.139,555.507 632.359,555.847 629.3,557.82 C 626.432,559.671 625.493,561.075 624.059,565.663 C 622.339,571.156 622.339,571.333 624.053,576.277 C 625.439,580.276 626.557,581.789 629.511,583.667 C 632.721,585.707 634.597,586.103 643.292,586.583 C 649.195,586.908 654.308,587.667 655.657,588.416 C 659.133,590.351 658.952,597.272 654.92,598.32 C 653.396,598.716 645.725,599.087 637.873,599.145 L 623.595,599.252 L 625.048,603.393 C 626.399,607.241 626.837,607.633 631.247,608.903 C 634.604,609.869 638.964,610.167 646.156,609.92 C 653.931,609.656 662.897,608.82 666.739,600.893 C 669.276,595.655 668.836,588.045 665.847,583.023 C 661.935,576.449 652.46,576.68 645.793,576.267 L 635.051,575.6 L 634.073,571.763 C 633.149,568.137 633.225,567.851 635.445,566.545 C 637.248,565.485 641.153,565.141 652.277,565.064 L 666.761,564.964 L 666.345,561.34 C 665.487,553.831 655.655,555.093 650.007,555.093 C 650.007,555.093 650.007,556.009 649.432,556.243 C 648.261,558.585 644.613,556.317 643.597,555.093 Z "/>
		<path id="dp_path017" fill="#02336d" fill-rule="evenodd" stroke="none" stroke-width="0" d="M 583.173,555.093 C 580.235,554.98 577.468,554.867 574.829,554.749 C 574.829,573.432 574.895,591.817 574.983,609.928 C 589.751,609.964 604.508,610.095 616.82,609.647 C 615.843,607.007 615.759,604.16 613.368,601.901 C 609.608,598.348 593.556,599.776 584.821,599.679 C 585.003,595.347 585.18,591.015 585.393,586.684 C 587.499,586.589 590.823,586.556 593.08,586.495 C 595.744,586.423 598.621,586.825 602.419,585.397 C 604.783,584.508 605.495,581.952 605.867,580.98 C 606.32,579.797 607.349,577.884 606.281,577.203 C 603.349,575.332 588.916,575.933 584.804,575.807 C 584.996,572.343 585.193,568.877 585.401,565.415 C 592.657,565.189 610.921,566.129 614.231,561.732 C 615.957,559.437 615.216,556.763 615.216,555.093 C 604.683,555.093 593.785,554.996 583.173,555.093 Z "/>
		<path id="dp_path018" fill="#02336d" fill-rule="evenodd" stroke="none" stroke-width="0" d="M 558.783,557.395 C 557.149,555.199 554.961,553.489 551.785,553.751 C 551.152,553.829 550.992,554.151 550.925,554.576 C 550.853,555.037 550.817,555.335 550.787,555.641 C 550.525,558.257 550.412,562.416 550.343,566.312 C 550.103,579.831 550.213,594.892 550.213,609.613 C 553.572,609.803 556.928,609.996 560.284,610.192 C 560.284,600.412 561.488,561.424 558.783,557.395 Z "/>
		<path id="dp_path019" fill="#02336d" fill-rule="evenodd" stroke="none" stroke-width="0" d="M 518.235,579.559 L 518.76,579.545 L 518.847,579.541 L 518.305,579.555 L 517.709,579.561 Z M 525.367,577.94 C 525.651,577.768 525.929,577.591 526.203,577.403 C 526.409,577.26 526.403,577.251 526.601,577.097 C 526.701,577.02 526.699,577.017 526.795,576.935 C 527.116,576.657 527.589,576.232 528.04,575.615 C 528.628,574.809 529.143,573.948 529.679,573.107 C 528.781,574.479 528.716,574.688 527.509,576.049 C 527.108,576.503 526.648,576.967 526.113,577.397 C 525.959,577.521 525.797,577.643 525.631,577.76 C 525.576,577.797 525.52,577.833 525.467,577.872 C 525.435,577.896 525.331,577.959 525.367,577.94 Z M 509.784,578.765 C 508.431,578.351 507.537,577.731 506.763,576.74 C 506.699,576.659 506.673,576.62 506.651,576.587 C 506.361,576.16 506.077,575.681 505.892,575.163 C 505.831,574.989 505.781,574.811 505.736,574.64 C 505.723,574.588 505.691,574.428 505.699,574.481 C 505.677,574.388 505.679,574.391 505.661,574.297 C 505.657,574.279 505.668,574.332 505.672,574.349 C 505.6,573.941 505.607,573.892 505.549,573.476 C 505.869,575.473 506.781,577.648 509.784,578.765 Z M 497.937,556.209 L 497.996,556.26 Z M 497.937,556.209 L 497.924,556.187 Z M 497.46,555.281 L 497.439,555.26 L 497.437,555.261 L 497.439,555.26 Z "/>
		<path id="dp_path020" fill="#02336d" fill-rule="evenodd" stroke="none" stroke-width="0" d="M 517.709,579.561 C 516.028,579.549 513.512,579.556 511.432,579.207 C 510.889,579.116 510.395,578.971 509.919,578.813 C 507.308,577.951 505.832,576.123 505.549,573.476 C 505.469,572.721 505.448,571.611 505.523,570.744 C 505.629,569.509 506.044,566.844 506.268,565.164 C 511.092,565.22 515.561,565.225 520.115,565.292 C 523.059,565.335 524.62,565.192 526.776,565.52 C 527.577,565.641 528.129,567.461 529.189,569.213 C 529.652,569.979 530.257,570.928 530.661,571.581 C 530.693,571.633 530.617,571.697 530.584,571.749 C 530.481,571.909 530.48,571.907 530.376,572.065 C 530.131,572.44 529.741,573.007 529.4,573.544 C 528.956,574.243 528.536,574.935 528.04,575.615 C 526.763,577.365 524.963,578.451 522.927,579.015 C 519.864,579.863 519.076,579.555 517.709,579.561 Z M 526.684,577.028 L 526.752,576.971 L 526.723,576.996 Z M 502.605,555.093 C 500.764,555.093 497.221,554.441 496.22,555.64 C 493.707,558.649 495.207,602.356 495.281,610.467 C 497.044,610.155 500.089,610.169 502.779,608.365 C 507.836,604.973 506.143,594.773 505.849,591.141 C 505.831,590.915 505.599,589.992 505.813,589.844 C 507.819,589.125 508.239,589.893 509.415,589.928 C 518.608,590.199 522.383,600.608 525.456,605.669 C 526.595,607.544 526.009,608.084 528.357,609.513 C 531.555,611.46 533.461,610.319 535.497,610.191 C 536.127,610.151 540.004,610.756 540.845,610.044 C 541.248,609.499 540.003,607.049 539.272,605.68 C 536.816,601.079 531.977,594.769 528.321,589.396 C 536.088,583.796 542.285,577.468 539.199,566.976 C 538.256,563.771 536.071,560.379 532.533,558.303 C 528.343,555.843 513.439,552.832 502.605,555.093 Z "/>
	</g>
</svg>