<?xml version="1.0" encoding="UTF-8" standalone="no"?>
<svg version="1.1" xmlns="http://www.w3.org/2000/svg" xmlns:xlink="http://www.w3.org/1999/xlink" width="409.44" height="398.4">
	<g id="dp_dp001" transform="matrix(1,0,0,1,-353.572,-120.048)">
		<path id="dp_path002" fill="#fbc903" fill-rule="evenodd" stroke="#fbc903" stroke-width="12.6667" stroke-linejoin="round" d="M 470.744,126.369 C 531.647,131.385 589.785,130.8 646.848,126.849 C 676.407,170.085 713.092,217.109 756.733,264.197 C 738.547,320.255 727.092,379.905 717.865,434.681 C 662.644,458.493 609.46,484.347 558.077,512 C 506.8,484.205 454.044,458.635 400.207,434.681 C 391.125,379.145 376.661,321.815 359.9,263.717 C 363.873,265.061 474.449,127.585 470.744,126.369 Z "/>
		<path id="dp_path003" fill="#02336d" fill-rule="evenodd" stroke="none" stroke-width="0" d="M 607.184,234.701 C 609.089,233.887 615.912,233.217 622.348,233.217 C 632.893,233.217 646.043,230.76 655.089,224.475 C 658.505,222.101 660.605,218.008 660.605,213.927 C 660.605,211.493 660.277,210.165 659.165,208 C 656.66,203.124 651.951,204.213 647.883,206.523 C 642.355,209.659 634.504,213.927 627.959,213.927 L 627.959,215.411 L 620.54,215.411 C 618.636,216.228 610.809,216.895 603.149,216.895 C 592.42,216.895 582.227,217.705 574.173,225.475 C 568.764,230.697 567.119,238.736 567.119,245.985 C 567.119,253.913 571.045,259.659 575.632,265.7 C 578.847,267.848 581.049,268.963 584.925,269.651 C 587.46,270.101 590.499,271.103 591.68,271.876 C 592.345,271.8 593.829,273.283 593.829,273.283 C 610.152,273.283 610.152,273.283 613.12,277.735 L 619.056,280.703 C 645.767,280.703 645.767,280.703 651.701,283.671 C 654.019,288.443 654.067,289.547 652.157,294.251 C 650.985,297.137 649.367,299.277 648.561,299.004 C 640.245,296.199 631.612,294.027 622.995,292.412 C 616.628,291.221 610.68,291.091 604.216,291.091 L 583.441,291.091 L 564.151,291.091 L 564.151,292.575 C 563.408,292.575 562.667,292.575 561.924,292.575 C 561.183,292.575 561.183,292.575 561.183,292.575 L 552.279,292.575 L 553.763,286.639 C 556.335,282.948 556.105,281.096 553.763,277.735 C 549.935,272.14 547.765,265.501 546.133,258.956 C 545.431,256.135 545.189,252.492 545.6,250.864 C 546.009,249.233 545.676,243.561 544.86,238.257 C 543.268,227.921 545.871,218.655 548.357,208.733 C 547.875,208.733 547.391,208.733 546.907,208.733 C 542.813,210.907 538.72,213.081 534.627,215.256 C 531.055,217.041 527.019,216.107 523.188,215.411 C 517.676,214.409 513.047,214.421 508.927,215.452 C 503.539,216.799 501.161,215.583 497.22,212.288 C 495.292,210.811 493.365,209.332 491.439,207.856 C 487.887,208.824 488.471,212.272 488.471,215.411 L 488.471,221.347 C 489.955,225.797 489.955,225.797 489.955,237.669 L 489.955,256.96 L 486.987,276.251 C 486.987,278.972 486.987,281.692 486.987,284.413 C 486.823,284.413 486.656,284.413 486.492,284.413 L 479.567,276.251 L 471.993,268.677 L 468.857,264.899 C 464.635,259.811 464.253,254.891 467.501,249.107 C 469.104,246.256 470.668,243.425 472.071,240.471 C 474.489,235.375 473.756,231.827 471.405,227.128 C 470.043,224.399 468.768,221.679 467.604,218.861 C 466.025,215.035 461.712,212.623 457.995,215.345 C 455.06,217.493 452.72,219.993 450.553,222.907 C 449.888,224.313 448.404,225.797 448.404,225.797 C 448.404,225.797 448.404,225.797 447.663,226.54 C 447.255,226.948 446.92,230.509 446.92,234.455 C 446.92,238.399 446.253,243.184 445.437,245.089 L 442.623,250.871 L 442.431,254.147 C 442.197,258.153 445.872,260.363 448.328,262.819 C 448.404,262.896 448.404,262.896 448.404,262.896 C 448.404,262.896 448.404,262.896 449.121,262.896 L 449.835,262.896 C 451.244,269.74 452.856,276.643 452.856,283.671 C 456.829,289.837 458.535,296.733 460.768,303.704 C 460.963,303.704 461.156,303.704 461.351,303.704 C 458.232,307.089 455.116,310.472 451.997,313.857 C 455.98,314.313 459.961,314.769 463.944,315.225 C 461.283,316.644 459.461,318.616 457.308,320.769 C 451.747,326.331 445.965,331.659 440.223,337.035 L 444.391,338.548 C 446.683,339.379 449.025,339.893 449.596,339.689 C 453.009,338.465 459.159,342.808 461.76,344.512 C 465.383,346.884 471.435,350.696 475.78,347.535 C 477.1,346.575 479.159,345.503 480.356,345.151 C 481.051,344.512 482.535,344.512 482.535,344.512 C 484.019,344.512 485.503,343.028 487.171,342.956 L 491.807,341.403 C 490.605,346.221 489.828,353.276 485.503,356.383 C 485.041,358.603 484.161,359.113 482.311,360.457 C 476.425,364.739 469.623,365.835 462.484,366.404 C 456.221,366.903 452.104,367.989 451.069,369.413 C 447.361,374.512 445.352,383.165 448.361,389.019 C 452.316,396.717 459.744,389.84 464.815,387.628 C 468.471,386.032 470.327,387.175 472.832,389.848 C 476.196,393.437 483.437,392.284 487.457,390.719 C 490.281,389.621 491.472,388.547 493.393,386.189 C 496.968,381.805 500.503,377.387 503.897,372.86 C 510.484,364.077 520.06,357.527 528.381,350.447 C 529.852,350.447 531.595,351.559 532.955,352.08 C 536.364,353.384 537.821,353.251 540.22,351.415 C 546.217,346.827 552.232,342.26 558.292,337.757 C 560,336.488 561.713,335.239 563.456,334.021 C 564.707,333.151 566.711,332.148 567.908,331.795 C 568.603,331.156 570.087,331.156 570.087,331.156 C 570.087,331.156 571.569,329.672 572.235,329.672 C 577.471,326.056 585.517,324.964 591.431,327.023 L 584.925,332.64 C 579.575,337.991 573.616,342.571 567.86,347.48 C 563.832,350.915 559.837,354.384 555.851,357.867 C 557.68,357.867 559.509,357.867 561.337,357.867 C 564.937,359.357 568.537,360.848 572.137,362.339 C 573.715,362.769 574.945,363.287 574.253,365.284 C 572.697,369.777 567.459,372.365 564.151,375.673 C 553.763,378.641 553.763,378.641 547.827,375.673 C 541.321,373.811 534.608,372.745 532.527,373.248 C 526.797,374.635 523.456,380.328 522.823,385.845 C 522.5,388.671 522.351,391.167 524.625,392.952 C 526.475,393.624 528.324,394.295 530.175,394.965 C 533.016,397.525 535.857,400.088 538.699,402.648 C 542.583,403.605 545.384,403.732 548.66,400.82 C 554.624,395.519 562.369,395.612 568.756,400.236 C 571.072,401.912 574.855,404.452 577.673,403.041 C 577.505,402.384 578.989,402.384 578.989,402.384 C 578.989,394.201 583.8,382.585 592.345,380.125 C 596.791,375.68 601.987,372.157 607.029,368.408 C 609.457,367.132 607.883,363.32 607.32,361.151 C 607.184,359.351 605.7,356.383 605.7,354.899 C 605.7,354.899 604.216,353.415 604.456,352.195 C 603.7,350.552 603.053,349.807 603.863,348.188 C 605.519,344.876 607.956,342.612 611.636,341.544 C 614.433,338.279 617.925,337.252 621.869,335.608 C 622.247,335.311 622.627,335.015 623.004,334.717 C 624.969,341.623 628.223,347.613 630.927,354.235 C 632.639,358.423 634.196,361.165 638.109,363.48 C 641.532,365.507 644.888,365.981 648.813,366.711 C 656.099,368.068 656.533,368.415 657.912,373.944 C 658.709,377.14 659.18,380.783 658.957,382.043 C 658.433,385.013 652.673,386.061 650.217,386.061 C 648.733,384.577 648.733,384.577 635.379,384.577 C 628.224,388.155 625.571,393.375 627.823,401.033 C 630.117,408.835 635.661,409.804 642.799,409.804 L 648.733,405.352 L 654.669,408.32 C 657.475,409.224 660.613,409.285 662.696,408.479 C 667.152,406.753 668.211,400.644 669.509,396.603 C 671.228,395.54 672.704,394.732 674.657,394.153 C 675.444,393.481 676.928,393.481 676.928,393.481 L 676.928,351.931 L 678.412,351.931 L 678.412,350.447 C 669.509,350.447 669.509,350.447 665.057,347.48 C 665.057,347.48 663.573,347.48 663.945,347.48 L 662.831,347.48 L 661.719,345.331 C 661.105,344.149 660.605,333.097 660.605,320.769 C 661.308,318.377 663.129,315.796 664.657,315.033 C 675.305,309.708 679.985,294.08 674.703,283.516 C 672.979,280.069 671.859,276.825 670.839,273.129 C 668.305,270.105 665.831,267.219 662.94,264.535 C 658.737,260.631 653.353,258.096 647.915,256.219 C 647.249,255.476 645.767,255.476 645.767,255.476 L 619.056,255.476 C 616.281,256.665 614.336,256.96 611.312,256.96 C 604.464,256.96 596.169,255.856 590.388,252.115 C 587.976,250.556 587.1,249.685 586.004,247.041 C 583.964,242.123 587.864,237.916 592.272,236.329 C 593.829,236.185 595.313,234.701 596.796,234.701 Z "/>
	</g>
</svg>